<?xml version="1.0" encoding="utf-8"?>
<!-- Generator: Adobe Illustrator 26.3.1, SVG Export Plug-In . SVG Version: 6.00 Build 0)  -->
<svg version="1.1" xmlns="http://www.w3.org/2000/svg" xmlns:xlink="http://www.w3.org/1999/xlink" x="0px" y="0px"
	 viewBox="0 0 160 40" style="enable-background:new 0 0 160 40;" xml:space="preserve">
<style type="text/css">
	.st0{fill:#FFFFFF;}
	.st1{fill:#FFFFFF;stroke:#FFFFFF;stroke-miterlimit:10;}
	.st2{fill:none;stroke:#FFFFFF;stroke-width:1.3;stroke-miterlimit:10;}
	.st3{fill:none;stroke:#FFFFFF;stroke-width:0.9;stroke-miterlimit:10;}
</style>
<g id="Layer_1">
	<g>
		<g>
			<path class="st0" d="M19.76,14.98c-0.54-2.1-1.43-4.17-4.42-4.17c-2.48,0-3.34,1.81-3.34,3.47c0,2.2,1.4,3.31,4.04,4.68
				c3.82,1.97,5.47,3.44,5.47,6.46c0,3.34-2.9,5.89-7,5.89c-1.91,0-3.56-0.54-4.87-1.05c-0.25-0.89-0.64-3.05-0.86-4.77l0.99-0.25
				c0.64,2.13,2.04,4.9,5.34,4.9c2.29,0,3.69-1.59,3.69-3.66c0-2.45-1.3-3.44-4.1-4.96c-3.34-1.81-5.22-3.34-5.22-6.3
				c0-2.83,2.35-5.5,6.55-5.5c1.78,0,3.53,0.48,4.2,0.6c0.13,1.15,0.25,2.42,0.51,4.49L19.76,14.98z"/>
			<path class="st0" d="M59.09,11.03c-2.04,0.22-2.7,0.54-2.8,2c-0.03,1.02-0.1,2.35-0.1,5.31v12.76h-1.21L41.37,14.47v7.95
				c0,2.86,0.1,4.29,0.16,5.22c0.06,1.62,0.86,2.1,3.15,2.29v0.89h-7.73v-0.89c1.97-0.16,2.74-0.64,2.86-2.2
				c0.1-1.02,0.16-2.45,0.16-5.34v-8.11c0-0.89-0.06-1.4-0.64-2.1c-0.6-0.79-1.27-0.99-2.83-1.15v-0.89h4.77l13.49,16v-7.79
				c0-2.96-0.06-4.33-0.16-5.28c-0.1-1.43-0.83-1.88-3.37-2.04v-0.89h7.86V11.03z"/>
			<path class="st0" d="M84.8,30.82v-0.89c2.07-0.25,2.32-0.57,1.88-1.78c-0.41-1.24-1.05-2.83-1.72-4.83h-6.87
				c-0.51,1.43-0.99,2.67-1.43,3.98c-0.7,2.07-0.25,2.32,2.35,2.64v0.89h-7.35v-0.89c2-0.25,2.51-0.48,3.63-3.34l6.59-16.7
				l1.02-0.19c2,5.44,4.2,11.45,6.2,16.96c1.02,2.77,1.3,3.02,3.56,3.28v0.89H84.8z M81.62,13.86c-1.02,2.74-2.1,5.63-3.05,8.14
				h5.95L81.62,13.86z"/>
			<path class="st0" d="M114.4,10.14c2.26,0,4.07,0.41,5.38,1.37c1.24,0.92,2.1,2.42,2.1,4.52c0,4.65-3.98,6.52-7,6.52
				c-0.35,0-0.67-0.03-0.86-0.06l-2.2-0.57v4.96c0,2.67,0.22,2.74,3.15,3.05v0.89h-8.78v-0.89c2.74-0.29,2.86-0.48,2.86-3.12V14.18
				c0-2.83-0.35-2.9-2.86-3.15v-0.89H114.4z M111.82,20.8c0.38,0.19,1.24,0.41,2.32,0.41c2.13,0,4.77-1.08,4.77-5.09
				c0-3.5-2.29-4.9-4.96-4.9c-0.92,0-1.59,0.16-1.78,0.38c-0.25,0.22-0.35,0.6-0.35,1.46V20.8z"/>
		</g>
	</g>
	<line class="st1" x1="156.25" y1="32.53" x2="94.75" y2="32.53"/>
</g>
<g id="line">
	<g>
		<circle class="st2" cx="140.11" cy="20.66" r="7.15"/>
		<circle class="st3" cx="149.46" cy="13.39" r="1.43"/>
		<rect x="144.85" y="6.32" class="st3" width="2.06" height="3.19"/>
		<line class="st3" x1="129.81" y1="7.92" x2="145.11" y2="7.92"/>
		<line class="st3" x1="147.17" y1="7.92" x2="156.68" y2="7.92"/>
		<line class="st3" x1="156.25" y1="7.93" x2="156.25" y2="32.53"/>
	</g>
</g>
</svg>
